# xmcd
#
# Track frame offsets: 
#        183
#        20890
#        38510
#        57035
#        80313
#        98290
#        121138
#        140593
#        159028
#        178985
#
# Disc length: 2599 seconds
#
# Revision: 3
# Processed by: cddbd v1.5.2PL0 Copyright (c) Steve Scherf et al.
# Submitted via: ExactAudioCopy v1.0b3
#
DISCID=6f0a250a
DTITLE=谭咏麟 - 難捨難分
DYEAR=1990
DGENRE=Pop
TTITLE0=難捨難分
TTITLE1=卡拉永遠OK
TTITLE2=以愛代替
TTITLE3=寂寞邀請
TTITLE4=我的心沒有結局
TTITLE5=夜未央
TTITLE6=I Love This Memory
TTITLE7=除了我還有誰
TTITLE8=忘情都市
TTITLE9=等候
EXTD=YEAR: 1990
EXTT0=
EXTT1=
EXTT2=
EXTT3=
EXTT4=
EXTT5=
EXTT6=
EXTT7=
EXTT8=
EXTT9=
PLAYORDER=
